<mxfile host="app.diagrams.net" modified="2024-02-19T16:02:59.296Z" agent="Mozilla/5.0 (Windows NT 10.0; Win64; x64) AppleWebKit/537.36 (KHTML, like Gecko) Chrome/120.0.0.0 Safari/537.36 OPR/106.0.0.0" etag="SixrXoUV4UUle0xHYxLo" version="23.1.5" type="github">
  <diagram name="PÃ¡gina-1" id="U5AzAdkFVicVWXCT14QF">
    <mxGraphModel dx="577" dy="327" grid="1" gridSize="10" guides="1" tooltips="1" connect="1" arrows="1" fold="1" page="1" pageScale="1" pageWidth="827" pageHeight="1169" math="0" shadow="0">
      <root>
        <mxCell id="0" />
        <mxCell id="1" parent="0" />
        <mxCell id="lYSQwNNFFsd60xZJyPw9-1" value="PROFESSOR" style="rounded=0;whiteSpace=wrap;html=1;" vertex="1" parent="1">
          <mxGeometry x="50" y="96" width="120" height="40" as="geometry" />
        </mxCell>
        <mxCell id="lYSQwNNFFsd60xZJyPw9-2" value="DIRECTOR_DE" style="html=1;whiteSpace=wrap;aspect=fixed;shape=isoRectangle;" vertex="1" parent="1">
          <mxGeometry x="250" y="71" width="148.33" height="89" as="geometry" />
        </mxCell>
        <mxCell id="lYSQwNNFFsd60xZJyPw9-8" value="DEPARTAMENTO" style="rounded=0;whiteSpace=wrap;html=1;" vertex="1" parent="1">
          <mxGeometry x="480" y="99" width="120" height="40" as="geometry" />
        </mxCell>
        <mxCell id="lYSQwNNFFsd60xZJyPw9-12" value="" style="endArrow=none;html=1;rounded=0;" edge="1" parent="1" target="lYSQwNNFFsd60xZJyPw9-2">
          <mxGeometry width="50" height="50" relative="1" as="geometry">
            <mxPoint x="170" y="118" as="sourcePoint" />
            <mxPoint x="220" y="68" as="targetPoint" />
          </mxGeometry>
        </mxCell>
        <mxCell id="lYSQwNNFFsd60xZJyPw9-13" value="" style="endArrow=none;html=1;rounded=0;entryX=0;entryY=0.5;entryDx=0;entryDy=0;" edge="1" parent="1">
          <mxGeometry width="50" height="50" relative="1" as="geometry">
            <mxPoint x="400" y="110.5" as="sourcePoint" />
            <mxPoint x="480" y="110" as="targetPoint" />
          </mxGeometry>
        </mxCell>
        <mxCell id="lYSQwNNFFsd60xZJyPw9-14" value="" style="endArrow=none;html=1;rounded=0;entryX=0;entryY=0.5;entryDx=0;entryDy=0;" edge="1" parent="1">
          <mxGeometry width="50" height="50" relative="1" as="geometry">
            <mxPoint x="400" y="119.25" as="sourcePoint" />
            <mxPoint x="480" y="118.75" as="targetPoint" />
          </mxGeometry>
        </mxCell>
        <mxCell id="lYSQwNNFFsd60xZJyPw9-15" value="TRABALHA_EM" style="html=1;whiteSpace=wrap;aspect=fixed;shape=isoRectangle;" vertex="1" parent="1">
          <mxGeometry x="250" y="200" width="148.33" height="89" as="geometry" />
        </mxCell>
        <mxCell id="lYSQwNNFFsd60xZJyPw9-16" value="" style="endArrow=none;html=1;rounded=0;exitX=0.221;exitY=0.29;exitDx=0;exitDy=0;exitPerimeter=0;" edge="1" parent="1" source="lYSQwNNFFsd60xZJyPw9-15">
          <mxGeometry width="50" height="50" relative="1" as="geometry">
            <mxPoint x="100" y="186" as="sourcePoint" />
            <mxPoint x="150" y="136" as="targetPoint" />
          </mxGeometry>
        </mxCell>
        <mxCell id="lYSQwNNFFsd60xZJyPw9-18" value="" style="endArrow=none;html=1;rounded=0;exitX=0.193;exitY=0.33;exitDx=0;exitDy=0;exitPerimeter=0;" edge="1" parent="1" source="lYSQwNNFFsd60xZJyPw9-15" target="lYSQwNNFFsd60xZJyPw9-1">
          <mxGeometry width="50" height="50" relative="1" as="geometry">
            <mxPoint x="280" y="230" as="sourcePoint" />
            <mxPoint x="140" y="139" as="targetPoint" />
          </mxGeometry>
        </mxCell>
        <mxCell id="lYSQwNNFFsd60xZJyPw9-19" value="" style="endArrow=none;html=1;rounded=0;entryX=0.167;entryY=1.025;entryDx=0;entryDy=0;entryPerimeter=0;" edge="1" parent="1" target="lYSQwNNFFsd60xZJyPw9-8">
          <mxGeometry width="50" height="50" relative="1" as="geometry">
            <mxPoint x="389" y="240" as="sourcePoint" />
            <mxPoint x="439" y="190" as="targetPoint" />
          </mxGeometry>
        </mxCell>
        <mxCell id="lYSQwNNFFsd60xZJyPw9-20" value="" style="endArrow=none;html=1;rounded=0;entryX=0.167;entryY=1.025;entryDx=0;entryDy=0;entryPerimeter=0;" edge="1" parent="1">
          <mxGeometry width="50" height="50" relative="1" as="geometry">
            <mxPoint x="393" y="241" as="sourcePoint" />
            <mxPoint x="509.33" y="139" as="targetPoint" />
          </mxGeometry>
        </mxCell>
      </root>
    </mxGraphModel>
  </diagram>
</mxfile>
